<svg width="34" height="13" viewBox="0 0 34 13" fill="none" xmlns="http://www.w3.org/2000/svg">
<path d="M4.44092 0C3.58317 0 2.81673 0.182617 2.1416 0.547852C1.47201 0.907552 0.946289 1.4056 0.564453 2.04199C0.188151 2.67285 0 3.39502 0 4.2085V4.2251C0 4.9777 0.166016 5.65283 0.498047 6.25049C0.835612 6.84814 1.29769 7.31852 1.88428 7.66162C2.47087 8.00472 3.146 8.17627 3.90967 8.17627C4.46305 8.17627 4.9445 8.09326 5.354 7.92725C5.76904 7.76123 6.11768 7.54264 6.3999 7.27148C6.68213 7.00033 6.89518 6.70703 7.03906 6.3916H7.32959V4.18359H6.83154V4.2002C6.83154 4.64844 6.7264 5.04964 6.51611 5.40381C6.30583 5.75798 6.02083 6.03467 5.66113 6.23389C5.30143 6.43311 4.89469 6.53271 4.44092 6.53271C3.98714 6.53271 3.58317 6.43034 3.229 6.22559C2.87484 6.02083 2.59538 5.74137 2.39062 5.38721C2.18587 5.02751 2.0835 4.61523 2.0835 4.15039V4.13379C2.0835 3.68555 2.19141 3.28158 2.40723 2.92188C2.62305 2.55664 2.91081 2.26888 3.27051 2.05859C3.63021 1.84831 4.02588 1.74316 4.45752 1.74316C4.90576 1.74316 5.30697 1.85107 5.66113 2.06689C6.02083 2.28271 6.30583 2.57601 6.51611 2.94678C6.7264 3.31755 6.83154 3.72982 6.83154 4.18359L7.20508 6.18408C7.20508 6.26156 7.20508 6.3418 7.20508 6.4248C7.20508 6.50228 7.20231 6.58252 7.19678 6.66553C7.16911 7.4292 7.0529 8.12646 6.84814 8.75732C6.64893 9.38265 6.34733 9.88346 5.94336 10.2598C5.54492 10.6305 5.03027 10.8159 4.39941 10.8159C4.05078 10.8159 3.73535 10.7606 3.45312 10.6499C3.17643 10.5337 2.93848 10.3704 2.73926 10.1602C2.54557 9.94987 2.39616 9.70638 2.29102 9.42969L2.25781 9.34668H0.157715L0.174316 9.43799C0.307129 10.0467 0.564453 10.589 0.946289 11.0649C1.33366 11.5353 1.82064 11.9061 2.40723 12.1772C2.99935 12.4429 3.66341 12.5757 4.39941 12.5757C5.40104 12.5757 6.26156 12.3211 6.98096 11.812C7.70589 11.2974 8.26204 10.5614 8.64941 9.604C9.03678 8.64665 9.23047 7.49561 9.23047 6.15088V6.13428C9.23047 5.04964 9.10319 4.12272 8.84863 3.35352C8.59408 2.57878 8.24268 1.94515 7.79443 1.45264C7.35173 0.95459 6.84261 0.589355 6.26709 0.356934C5.69157 0.118978 5.08285 0 4.44092 0ZM12.999 10.6665C13.3809 10.6665 13.6963 10.542 13.9453 10.293C14.1943 10.0384 14.3188 9.72852 14.3188 9.36328C14.3188 8.99251 14.1943 8.68262 13.9453 8.43359C13.6963 8.17904 13.3809 8.05176 12.999 8.05176C12.6227 8.05176 12.3073 8.17904 12.0527 8.43359C11.8037 8.68262 11.6792 8.99251 11.6792 9.36328C11.6792 9.72852 11.8037 10.0384 12.0527 10.293C12.3073 10.542 12.6227 10.6665 12.999 10.6665ZM12.999 4.50732C13.3809 4.50732 13.6963 4.38281 13.9453 4.13379C14.1943 3.87923 14.3188 3.56934 14.3188 3.2041C14.3188 2.83333 14.1943 2.52344 13.9453 2.27441C13.6963 2.01986 13.3809 1.89258 12.999 1.89258C12.6227 1.89258 12.3073 2.01986 12.0527 2.27441C11.8037 2.52344 11.6792 2.83333 11.6792 3.2041C11.6792 3.56934 11.8037 3.87923 12.0527 4.13379C12.3073 4.38281 12.6227 4.50732 12.999 4.50732ZM22.5781 12.2769H24.6201V9.97754H26.2388V8.20947H24.6201V0.298828H21.6069C21.2749 0.791341 20.9429 1.29769 20.6108 1.81787C20.2843 2.33252 19.9551 2.85547 19.623 3.38672C19.2965 3.91243 18.9673 4.44645 18.6353 4.98877C18.3088 5.52555 17.985 6.0651 17.6641 6.60742C17.3486 7.14974 17.0332 7.68929 16.7178 8.22607V9.97754H22.5781V12.2769ZM18.71 8.25928V8.13477C18.9424 7.72526 19.1831 7.31299 19.4321 6.89795C19.6812 6.47738 19.9329 6.05957 20.1875 5.64453C20.4421 5.22396 20.6994 4.80615 20.9595 4.39111C21.2196 3.97607 21.4769 3.56934 21.7314 3.1709C21.9915 2.77246 22.2433 2.38509 22.4868 2.00879H22.6113V8.25928H18.71ZM31.1943 12.2769H33.3276V0.298828H31.1943L28.0649 2.49854V4.50732L31.0449 2.40723H31.1943V12.2769Z" fill="black"/>
</svg>
