<svg width="206" height="88" viewBox="0 0 206 88" fill="none" xmlns="http://www.w3.org/2000/svg">
<path d="M32.2803 0C37.52 2.83033e-05 42.1898 0.809842 46.3096 2.42969C50.4295 4.04967 53.9198 6.39002 56.7998 9.45996L56.8096 9.44043C59.6895 12.5104 61.8801 16.2399 63.3701 20.6299C64.8601 25.0198 65.6103 29.9997 65.6104 35.5596V51.1504C65.6103 58.6902 64.2698 65.1602 61.5898 70.5801C58.9098 76 55.0598 80.1498 50.0498 83.0498C45.0398 85.9498 38.9997 87.4004 31.9297 87.4004C26.0098 87.4004 20.8998 86.4102 16.5898 84.4502C12.2799 82.4902 8.89968 79.8598 6.42969 76.5498C4.05981 73.3799 2.62034 69.8795 2.11035 66.0596L2.0498 65.5596C1.9399 64.9598 1.97015 64.4595 2.12012 64.0596C2.27013 63.6598 2.52001 63.3496 2.87988 63.1396C3.23985 62.9297 3.71996 62.8203 4.33984 62.8203H15.9502C16.4101 62.8203 16.7901 62.88 17.0801 63C17.37 63.12 17.6103 63.3097 17.7803 63.5596C17.9203 63.7696 18.0502 64.0399 18.1602 64.3799L18.2197 64.5898C18.4897 66.2098 19.1703 67.7404 20.2803 69.1904C21.3902 70.6402 22.94 71.8101 24.9297 72.71C26.9197 73.61 29.3901 74.0596 32.3301 74.0596C35.56 74.0596 38.2798 73.4996 40.4697 72.3896C42.6596 71.2797 44.4296 69.7701 45.7695 67.8604C47.1095 65.9504 48.0702 63.7901 48.6602 61.3701C49.2501 58.9502 49.54 56.4402 49.54 53.8203V47.9004L49.3398 48.1699C47.2898 50.8399 44.5596 52.9901 41.1396 54.6201C37.5497 56.33 33.3494 57.1797 28.5195 57.1797C22.9297 57.1796 17.9901 56.0096 13.7002 53.6797C9.4102 51.3497 6.04988 48.12 3.62988 44C1.20996 39.8801 5.97355e-05 35.1802 0 29.9004V28.8203C0 23.1503 1.33047 18.1501 3.98047 13.8301C6.63046 9.51015 10.3703 6.11989 15.2002 3.66992C20.0302 1.21999 25.7204 0 32.2803 0ZM152.97 1.4502C153.54 1.4502 153.99 1.53024 154.34 1.7002C154.69 1.87017 154.94 2.1198 155.11 2.46973C155.28 2.81969 155.36 3.26992 155.36 3.83984V56.8896H164.061C164.61 56.8897 165.06 56.9804 165.41 57.1504L165.42 57.1797C165.77 57.3497 166.03 57.61 166.2 57.96C166.37 58.3099 166.46 58.7598 166.46 59.3096V67.8701C166.46 68.4199 166.37 68.8698 166.2 69.2197C166.03 69.5697 165.77 69.83 165.42 70C165.07 70.1699 164.62 70.2597 164.07 70.2598H155.37V83.6504C155.37 84.2002 155.28 84.6501 155.11 85C154.94 85.35 154.68 85.6103 154.33 85.7803C153.98 85.9502 153.53 86.04 152.98 86.04H142C141.45 86.04 141.01 85.9503 140.67 85.7803C140.33 85.6103 140.07 85.3497 139.9 85.0098C139.73 84.6698 139.64 84.2196 139.64 83.6797V70.2598H99.9902C99.4304 70.2598 98.9904 70.1799 98.6504 70C98.3105 69.82 98.0499 69.5703 97.8799 69.2305C97.7099 68.8905 97.6201 68.4397 97.6201 67.8896V58.2197C97.6201 57.6599 97.6502 57.2 97.7002 56.8301C97.7502 56.4601 97.8598 56.1095 98.0098 55.7695C98.1598 55.4296 98.38 55.0199 98.6699 54.54C100.45 51.7001 102.24 48.8502 104.03 45.9902C105.82 43.1304 107.61 40.2803 109.39 37.4404C111.18 34.6004 112.96 31.7601 114.74 28.9102C116.52 26.0602 118.311 23.2096 120.101 20.3496C121.89 17.4898 123.68 14.6398 125.46 11.79C127.24 8.94006 129.03 6.09021 130.82 3.24023C131.11 2.7604 131.39 2.40038 131.67 2.15039C131.95 1.89047 132.27 1.72035 132.63 1.61035C132.99 1.50037 133.45 1.45022 134.01 1.4502H152.97ZM202.69 1.4502C203.24 1.45025 203.69 1.54001 204.04 1.70996C204.39 1.87996 204.65 2.14025 204.82 2.49023H204.8C204.97 2.84018 205.06 3.28998 205.06 3.83984V83.6299C205.06 84.1899 204.98 84.6502 204.81 84.9902C204.65 85.3301 204.39 85.5801 204.05 85.75C203.71 85.9199 203.26 86 202.69 86L191.37 86.0303C190.83 86.0303 190.38 85.9395 190.04 85.7695C189.7 85.5995 189.44 85.34 189.27 85C189.1 84.66 189.01 84.2098 189.01 83.6699V16.8604L169.52 30.1904C169.05 30.5102 168.63 30.6503 168.25 30.6104C167.87 30.5704 167.56 30.4101 167.32 30.1104C167.08 29.8204 166.96 29.3902 166.96 28.8203V18.9004C166.96 18.3506 167.01 17.9002 167.1 17.5303C167.2 17.1603 167.36 16.8396 167.6 16.5596C167.84 16.2796 168.19 15.9799 168.65 15.6699L187.32 2.57031C187.78 2.25035 188.17 2.0096 188.5 1.84961C188.83 1.68966 189.18 1.59026 189.54 1.53027C189.9 1.48029 190.36 1.4502 190.93 1.4502H202.69ZM82.1699 55.9502C83.8499 55.9502 85.36 56.3401 86.71 57.1201C88.0498 57.9 89.1297 58.9598 89.9297 60.3096C90.7296 61.6595 91.1298 63.2098 91.1299 64.8496C91.1299 66.4896 90.7297 68.0004 89.9297 69.3604C89.1297 70.7202 88.0598 71.8002 86.71 72.5801C85.36 73.36 83.8099 73.75 82.1699 73.75C80.53 73.75 79.0201 73.36 77.6602 72.5801C76.3003 71.8002 75.2204 70.7301 74.4404 69.3604C73.6604 67.9903 73.2705 66.5296 73.2705 64.8496C73.2706 63.1698 73.6605 61.6495 74.4404 60.3096C75.2204 58.9698 76.2903 57.9 77.6602 57.1201C79.0301 56.3402 80.49 55.9502 82.1699 55.9502ZM135.69 19.9297C133.76 23.0097 131.83 26.0902 129.92 29.1602C128.01 32.24 126.08 35.3098 124.15 38.3896C122.22 41.4695 120.29 44.5498 118.36 47.6396C116.43 50.7295 114.51 53.8098 112.601 56.8896H139.91V13.1904C139.885 13.2307 137.183 17.5508 135.69 19.9297ZM32.1797 13.2002C28.9999 13.2002 26.1999 13.8199 23.75 15.0498C21.3001 16.2798 19.3898 18.0296 18.0098 20.2695C16.6298 22.5095 15.9404 25.1702 15.9404 28.2402V29.0703C15.9405 32.1501 16.6299 34.85 18.0098 37.1699C19.3897 39.4899 21.3001 41.2796 23.75 42.5596C26.1999 43.8395 28.9698 44.4804 32.1797 44.4805C35.3897 44.4805 38.1999 43.8396 40.6299 42.5596C43.0598 41.2796 44.9599 39.4799 46.3398 37.1699C47.7198 34.86 48.4101 32.1602 48.4102 29.0703V28.2402C48.4102 25.1702 47.7198 22.5195 46.3398 20.2695C44.9599 18.0197 43.0497 16.2797 40.6299 15.0498C38.2099 13.8199 35.3596 13.2002 32.1797 13.2002ZM82.1699 13.5303C83.8499 13.5303 85.36 13.9202 86.71 14.7002C88.0498 15.4801 89.1297 16.5399 89.9297 17.8896C90.7296 19.2396 91.1298 20.7898 91.1299 22.4297C91.1299 24.0697 90.7297 25.5804 89.9297 26.9404C89.1297 28.3002 88.0598 29.3802 86.71 30.1602C85.36 30.9401 83.8099 31.3301 82.1699 31.3301C80.53 31.3301 79.0201 30.9401 77.6602 30.1602C76.3003 29.3802 75.2204 28.3102 74.4404 26.9404C73.6604 25.5704 73.2705 24.1097 73.2705 22.4297C73.2706 20.7498 73.6605 19.2296 74.4404 17.8896C75.2204 16.5499 76.2903 15.4801 77.6602 14.7002C79.0301 13.9202 80.49 13.5303 82.1699 13.5303Z" fill="black" fill-opacity="0.01"/>
</svg>
