<svg width="138" height="138" viewBox="0 0 138 138" fill="none" xmlns="http://www.w3.org/2000/svg">
<g filter="url(#filter0_d_5592_28471)">
<rect x="40" y="32" width="58" height="58" rx="29" fill="white" fill-opacity="0.07" style="mix-blend-mode:screen" shape-rendering="crispEdges"/>
</g>
<path opacity="0.9" d="M62.3145 47.9331V47.5537C62.3145 45.6875 63.2271 44.7544 65.0522 44.7544H72.9478C74.7729 44.7544 75.6855 45.6875 75.6855 47.5537V47.9331H62.3145ZM67.7593 76.439C66.8638 76.439 66.1836 76.1997 65.7188 75.7212C65.2539 75.2427 65.0215 74.5454 65.0215 73.6294V58.2588C65.0215 57.541 64.9463 56.9326 64.7959 56.4336C64.6455 55.9277 64.4438 55.4766 64.1909 55.0801L63.4219 53.9009C63.1006 53.3882 62.834 52.8857 62.6221 52.3936C62.417 51.8945 62.3145 51.3408 62.3145 50.7324V49.6763H75.6855V50.7324C75.6855 51.3408 75.5796 51.8945 75.3677 52.3936C75.1626 52.8857 74.896 53.3882 74.5679 53.9009L73.8091 55.0801C73.5562 55.4766 73.3545 55.9277 73.2041 56.4336C73.0537 56.9326 72.9785 57.541 72.9785 58.2588V73.6294C72.9785 74.5454 72.7427 75.2427 72.271 75.7212C71.8062 76.1997 71.1294 76.439 70.2407 76.439H67.7593ZM66.5698 59.4277V63.6421C66.5698 64.3257 66.8022 64.8999 67.2671 65.3647C67.7388 65.8296 68.3198 66.062 69.0103 66.062C69.4614 66.062 69.8682 65.9561 70.2305 65.7441C70.5996 65.5322 70.8901 65.2451 71.1021 64.8828C71.3208 64.5137 71.4302 64.1001 71.4302 63.6421V59.4277C71.4302 58.9766 71.3208 58.5698 71.1021 58.2075C70.8901 57.8384 70.5996 57.5479 70.2305 57.3359C69.8682 57.1172 69.4614 57.0078 69.0103 57.0078C68.3198 57.0078 67.7388 57.2437 67.2671 57.7153C66.8022 58.1802 66.5698 58.751 66.5698 59.4277ZM69.0103 65.2109C68.5591 65.2109 68.1831 65.064 67.8823 64.77C67.5815 64.4692 67.4312 64.0933 67.4312 63.6421C67.4312 63.2114 67.5815 62.8457 67.8823 62.5449C68.1899 62.2373 68.5659 62.0835 69.0103 62.0835C69.4409 62.0835 69.8101 62.2373 70.1177 62.5449C70.4253 62.8457 70.5791 63.2114 70.5791 63.6421C70.5791 64.0933 70.4287 64.4692 70.1279 64.77C69.8271 65.064 69.4546 65.2109 69.0103 65.2109Z" fill="#D9D9D9" style="mix-blend-mode:plus-lighter"/>
<defs>
<filter id="filter0_d_5592_28471" x="0" y="0" width="138" height="138" filterUnits="userSpaceOnUse" color-interpolation-filters="sRGB">
<feFlood flood-opacity="0" result="BackgroundImageFix"/>
<feColorMatrix in="SourceAlpha" type="matrix" values="0 0 0 0 0 0 0 0 0 0 0 0 0 0 0 0 0 0 127 0" result="hardAlpha"/>
<feOffset dy="8"/>
<feGaussianBlur stdDeviation="20"/>
<feComposite in2="hardAlpha" operator="out"/>
<feColorMatrix type="matrix" values="0 0 0 0 0 0 0 0 0 0 0 0 0 0 0 0 0 0 0.2 0"/>
<feBlend mode="normal" in2="BackgroundImageFix" result="effect1_dropShadow_5592_28471"/>
<feBlend mode="normal" in="BackgroundImageFix" in2="effect1_dropShadow_5592_28471" result="BackgroundImageFix"/>
<feBlend mode="normal" in="SourceGraphic" in2="BackgroundImageFix" result="shape"/>
</filter>
</defs>
</svg>
