<svg width="402" height="62" viewBox="0 0 402 62" fill="none" xmlns="http://www.w3.org/2000/svg">
<rect opacity="0.35" x="342.7" y="27.1" width="24" height="12" rx="3.8" stroke="white"/>
<path opacity="0.4" d="M368.1 31.2667V35.2667C368.905 34.9279 369.428 34.1398 369.428 33.2667C369.428 32.3935 368.905 31.6054 368.1 31.2667Z" fill="white"/>
<rect x="344" y="28.6" width="21" height="9" rx="2.5" fill="white"/>
<path d="M323.863 36.2342C325.253 34.9446 327.288 34.9447 328.678 36.2342C328.748 36.3035 328.79 36.4013 328.792 36.5047C328.794 36.608 328.756 36.7077 328.689 36.7801L326.512 39.1893C326.449 39.26 326.362 39.2995 326.271 39.2996C326.18 39.2996 326.093 39.2601 326.029 39.1893L323.852 36.7801C323.785 36.7076 323.748 36.608 323.75 36.5047C323.752 36.4013 323.793 36.3035 323.863 36.2342ZM320.835 33.3611C323.898 30.524 328.643 30.524 331.707 33.3611C331.776 33.4277 331.815 33.5193 331.816 33.615C331.817 33.7107 331.78 33.803 331.713 33.8709L330.425 35.1658C330.292 35.2978 330.078 35.3003 329.942 35.1717C328.936 34.2647 327.627 33.7624 326.269 33.7625C324.913 33.7631 323.605 34.2653 322.599 35.1717C322.463 35.3002 322.25 35.2978 322.117 35.1658L320.83 33.8709C320.762 33.8031 320.724 33.7108 320.725 33.615C320.726 33.5193 320.766 33.4277 320.835 33.3611ZM317.808 30.4207C322.539 26.127 330.003 26.127 334.734 30.4207C334.802 30.4844 334.841 30.5712 334.842 30.6619C334.842 30.7528 334.805 30.8405 334.737 30.9051L333.439 32.1453C333.306 32.2724 333.089 32.2735 332.953 32.1482C331.15 30.5255 328.758 29.621 326.271 29.6209C323.784 29.6209 321.391 30.5253 319.589 32.1482C319.453 32.2737 319.236 32.2727 319.102 32.1453L317.804 30.9051C317.737 30.8405 317.699 30.7529 317.7 30.6619C317.701 30.571 317.74 30.4844 317.808 30.4207Z" fill="white"/>
<path d="M293.134 34.5004C293.723 34.5007 294.2 35.0149 294.2 35.6498V37.9496C294.2 38.5846 293.723 39.0997 293.134 39.1H292.066C291.477 39.0998 291 38.5846 291 37.9496V35.6498C291 35.0149 291.477 34.5005 292.066 34.5004H293.134ZM298.434 32.1C299.023 32.1002 299.5 32.6228 299.5 33.267V37.933C299.5 38.5772 299.023 39.0998 298.434 39.1H297.366C296.777 39.0997 296.3 38.5772 296.3 37.933V33.267C296.3 32.6228 296.777 32.1003 297.366 32.1H298.434ZM303.833 29.5004C304.422 29.5004 304.9 30.0156 304.9 30.6518V37.9477C304.9 38.5839 304.422 39.1 303.833 39.1H302.767C302.178 39.1 301.7 38.5839 301.7 37.9477V30.6518C301.7 30.0157 302.178 29.5004 302.767 29.5004H303.833ZM309.134 27.1C309.723 27.1003 310.2 27.6038 310.2 28.225V37.975C310.2 38.5962 309.723 39.0997 309.134 39.1H308.066C307.477 39.0998 307 38.5962 307 37.975V28.225C307 27.6038 307.477 27.1001 308.066 27.1H309.134Z" fill="white"/>
</svg>
