<svg width="138" height="138" viewBox="0 0 138 138" fill="none" xmlns="http://www.w3.org/2000/svg">
<g filter="url(#filter0_d_5592_28470)">
<rect x="40" y="32" width="58" height="58" rx="29" fill="white" fill-opacity="0.07" style="mix-blend-mode:screen" shape-rendering="crispEdges"/>
</g>
<path opacity="0.9" d="M79.9819 57.8691C80.4741 57.8691 80.8911 57.6982 81.2329 57.3564C81.5815 57.0078 81.7559 56.5874 81.7559 56.0952C81.7559 55.6167 81.5815 55.2031 81.2329 54.8545C80.8843 54.5059 80.4673 54.3315 79.9819 54.3315C79.4966 54.3315 79.0796 54.5059 78.731 54.8545C78.3823 55.2031 78.208 55.6167 78.208 56.0952C78.208 56.5874 78.3823 57.0078 78.731 57.3564C79.0796 57.6982 79.4966 57.8691 79.9819 57.8691ZM57.0952 73.1167C55.6323 73.1167 54.5146 72.7339 53.7422 71.9683C52.9697 71.2026 52.5835 70.0918 52.5835 68.6357V54.7109C52.5835 53.2617 52.9697 52.1543 53.7422 51.3887C54.5146 50.623 55.6323 50.2402 57.0952 50.2402H60.2944C60.6362 50.2402 60.9165 50.2197 61.1353 50.1787C61.3608 50.1309 61.5659 50.0488 61.7505 49.9326C61.9351 49.8096 62.1401 49.6318 62.3657 49.3994L63.4116 48.333C63.6577 48.0869 63.9072 47.8887 64.1602 47.7383C64.4199 47.5879 64.707 47.4751 65.0215 47.3999C65.3428 47.3247 65.7222 47.2871 66.1597 47.2871H71.7583C72.1958 47.2871 72.5752 47.3247 72.8965 47.3999C73.2178 47.4751 73.5049 47.5879 73.7578 47.7383C74.0107 47.8887 74.2568 48.0869 74.4961 48.333L75.542 49.3994C75.7744 49.6318 75.9829 49.8096 76.1675 49.9326C76.3521 50.0488 76.5537 50.1309 76.7725 50.1787C76.998 50.2197 77.2817 50.2402 77.6235 50.2402H80.9048C82.3608 50.2402 83.4751 50.623 84.2476 51.3887C85.02 52.1543 85.4062 53.2617 85.4062 54.7109V68.6357C85.4062 70.0918 85.02 71.2026 84.2476 71.9683C83.4751 72.7339 82.3608 73.1167 80.9048 73.1167H57.0952ZM69 68.769C69.9775 68.769 70.8936 68.5845 71.748 68.2153C72.6025 67.853 73.3511 67.3506 73.9937 66.708C74.6431 66.0586 75.1489 65.3066 75.5112 64.4521C75.8804 63.5908 76.0649 62.668 76.0649 61.6836C76.0649 60.6992 75.8838 59.7798 75.5215 58.9253C75.1592 58.0708 74.6533 57.3188 74.0039 56.6694C73.3613 56.02 72.6094 55.5142 71.748 55.1519C70.8936 54.7827 69.9775 54.5981 69 54.5981C68.0225 54.5981 67.103 54.7827 66.2417 55.1519C65.3872 55.5142 64.6353 56.02 63.9858 56.6694C63.3433 57.3188 62.8408 58.0708 62.4785 58.9253C62.1162 59.7798 61.9351 60.6992 61.9351 61.6836C61.9351 62.668 62.1162 63.5908 62.4785 64.4521C62.8408 65.3066 63.3433 66.0586 63.9858 66.708C64.6353 67.3506 65.3872 67.853 66.2417 68.2153C67.103 68.5845 68.0225 68.769 69 68.769ZM69 66.0825C68.3916 66.0825 67.8208 65.9697 67.2876 65.7441C66.7612 65.5117 66.2964 65.1973 65.8931 64.8008C65.4966 64.3975 65.1821 63.9292 64.9497 63.396C64.7241 62.8628 64.6113 62.292 64.6113 61.6836C64.6113 61.0752 64.7241 60.5044 64.9497 59.9712C65.1821 59.438 65.4966 58.9697 65.8931 58.5664C66.2964 58.1631 66.7612 57.8486 67.2876 57.623C67.8208 57.3975 68.3916 57.2847 69 57.2847C69.6084 57.2847 70.1758 57.3975 70.7021 57.623C71.2354 57.8486 71.7002 58.1631 72.0967 58.5664C72.5 58.9697 72.8145 59.438 73.04 59.9712C73.2656 60.5044 73.3784 61.0752 73.3784 61.6836C73.3784 62.292 73.2656 62.8628 73.04 63.396C72.8145 63.9292 72.5 64.3975 72.0967 64.8008C71.7002 65.1973 71.2354 65.5117 70.7021 65.7441C70.1758 65.9697 69.6084 66.0825 69 66.0825Z" fill="#D9D9D9" style="mix-blend-mode:plus-lighter"/>
<defs>
<filter id="filter0_d_5592_28470" x="0" y="0" width="138" height="138" filterUnits="userSpaceOnUse" color-interpolation-filters="sRGB">
<feFlood flood-opacity="0" result="BackgroundImageFix"/>
<feColorMatrix in="SourceAlpha" type="matrix" values="0 0 0 0 0 0 0 0 0 0 0 0 0 0 0 0 0 0 127 0" result="hardAlpha"/>
<feOffset dy="8"/>
<feGaussianBlur stdDeviation="20"/>
<feComposite in2="hardAlpha" operator="out"/>
<feColorMatrix type="matrix" values="0 0 0 0 0 0 0 0 0 0 0 0 0 0 0 0 0 0 0.2 0"/>
<feBlend mode="normal" in2="BackgroundImageFix" result="effect1_dropShadow_5592_28470"/>
<feBlend mode="normal" in="BackgroundImageFix" in2="effect1_dropShadow_5592_28470" result="BackgroundImageFix"/>
<feBlend mode="normal" in="SourceGraphic" in2="BackgroundImageFix" result="shape"/>
</filter>
</defs>
</svg>
